<svg width="46" height="36" viewBox="0 0 46 36" fill="none" xmlns="http://www.w3.org/2000/svg">
<g clip-path="url(#clip0_458_3593)">
<path d="M19.5 10.5C20.2957 10.5 21.0587 10.8161 21.6213 11.3787C22.1839 11.9413 22.5 12.7044 22.5 13.5V31.5L15 27L7.5 31.5V13.5C7.5 12.7044 7.81607 11.9413 8.37868 11.3787C8.94129 10.8161 9.70435 10.5 10.5 10.5H19.5Z" stroke="white" stroke-width="2" stroke-linecap="round" stroke-linejoin="round"/>
<path d="M13.8975 6C14.1611 5.5433 14.5406 5.16416 14.9975 4.90082C15.4544 4.63748 15.9726 4.49923 16.5 4.5H25.5C26.2956 4.5 27.0587 4.81607 27.6213 5.37868C28.1839 5.94129 28.5 6.70435 28.5 7.5V25.5L27 24.6" stroke="white" stroke-width="2" stroke-linecap="round" stroke-linejoin="round"/>
</g>
<ellipse cx="36" cy="10.4521" rx="10" ry="10.4521" fill="#1890FF"/>
<path d="M35.768 16.2054C35.096 16.2054 34.5093 16.1254 34.008 15.9654C33.5067 15.7947 33.0853 15.5707 32.744 15.2934C32.4027 15.0161 32.1413 14.7121 31.96 14.3814C31.7893 14.0507 31.6987 13.7094 31.688 13.3574C31.688 13.2614 31.72 13.1867 31.784 13.1334C31.848 13.0801 31.928 13.0534 32.024 13.0534H32.808C32.904 13.0534 32.9893 13.0747 33.064 13.1174C33.1387 13.1601 33.2027 13.2507 33.256 13.3894C33.3627 13.7734 33.544 14.0721 33.8 14.2854C34.0667 14.4987 34.3707 14.6481 34.712 14.7334C35.064 14.8081 35.416 14.8454 35.768 14.8454C36.504 14.8454 37.1013 14.6694 37.56 14.3174C38.0187 13.9654 38.248 13.4481 38.248 12.7654C38.248 12.0721 38.04 11.5761 37.624 11.2774C37.208 10.9787 36.632 10.8294 35.896 10.8294H34.376C34.2693 10.8294 34.1787 10.7974 34.104 10.7334C34.04 10.6694 34.008 10.5787 34.008 10.4614V10.0294C34.008 9.93341 34.024 9.85341 34.056 9.78941C34.0987 9.71474 34.1413 9.65074 34.184 9.59741L37.288 6.20541H32.568C32.4613 6.20541 32.3707 6.17341 32.296 6.10941C32.232 6.04541 32.2 5.95474 32.2 5.83741V5.22941C32.2 5.11208 32.232 5.02141 32.296 4.95741C32.3707 4.88274 32.4613 4.84541 32.568 4.84541H38.952C39.0693 4.84541 39.16 4.88274 39.224 4.95741C39.2987 5.02141 39.336 5.11208 39.336 5.22941V5.80541C39.336 5.88008 39.3147 5.94941 39.272 6.01341C39.24 6.06674 39.2027 6.12008 39.16 6.17341L36.072 9.61341L36.328 9.62941C37.032 9.65074 37.6453 9.77874 38.168 10.0134C38.7013 10.2481 39.112 10.6001 39.4 11.0694C39.6987 11.5281 39.848 12.1094 39.848 12.8134C39.848 13.5281 39.672 14.1414 39.32 14.6534C38.968 15.1547 38.4827 15.5387 37.864 15.8054C37.2453 16.0721 36.5467 16.2054 35.768 16.2054Z" fill="white"/>
<defs>
<clipPath id="clip0_458_3593">
<rect width="36" height="36" fill="white"/>
</clipPath>
</defs>
</svg>
