<svg width="46" height="39" viewBox="0 0 46 39" fill="none" xmlns="http://www.w3.org/2000/svg">
<path d="M4.5 12H31.5M9 6L4.5 12V33C4.5 33.7956 4.81607 34.5587 5.37868 35.1213C5.94129 35.6839 6.70435 36 7.5 36H28.5C29.2956 36 30.0587 35.6839 30.6213 35.1213C31.1839 34.5587 31.5 33.7956 31.5 33V12L27 6H9Z" stroke="white" stroke-width="2" stroke-linecap="round" stroke-linejoin="round"/>
<path d="M24 18C24 19.5913 23.3679 21.1174 22.2426 22.2426C21.1174 23.3679 19.5913 24 18 24C16.4087 24 14.8826 23.3679 13.7574 22.2426C12.6321 21.1174 12 19.5913 12 18" stroke="white" stroke-width="2" stroke-linecap="round" stroke-linejoin="round"/>
<ellipse cx="36" cy="10.4521" rx="10" ry="10.4521" fill="#1890FF"/>
<path d="M37.416 16.0454C37.3093 16.0454 37.2187 16.0134 37.144 15.9494C37.08 15.8747 37.048 15.7841 37.048 15.6774V13.3734H31.864C31.7573 13.3734 31.6667 13.3414 31.592 13.2774C31.528 13.2027 31.496 13.1121 31.496 13.0054V12.3654C31.496 12.3227 31.5067 12.2587 31.528 12.1734C31.56 12.0774 31.608 11.9814 31.672 11.8854L36.472 5.11741C36.6 4.93608 36.7973 4.84541 37.064 4.84541H38.216C38.3227 4.84541 38.408 4.88274 38.472 4.95741C38.5467 5.02141 38.584 5.10674 38.584 5.21341V11.9814H40.024C40.1413 11.9814 40.232 12.0187 40.296 12.0934C40.3707 12.1574 40.408 12.2427 40.408 12.3494V13.0054C40.408 13.1121 40.3707 13.2027 40.296 13.2774C40.232 13.3414 40.1467 13.3734 40.04 13.3734H38.584V15.6774C38.584 15.7841 38.5467 15.8747 38.472 15.9494C38.408 16.0134 38.3227 16.0454 38.216 16.0454H37.416ZM33.208 12.0134H37.064V6.52541L33.208 12.0134Z" fill="white"/>
</svg>
