<svg width="162" height="44" viewBox="0 0 162 44" fill="none" xmlns="http://www.w3.org/2000/svg">
<g clip-path="url(#clip0_475_3031)">
<path d="M66.3335 9.16683C66.3335 8.6806 66.5267 8.21428 66.8705 7.87047C67.2143 7.52665 67.6806 7.3335 68.1668 7.3335H75.5002C75.9864 7.3335 76.4527 7.52665 76.7965 7.87047C77.1403 8.21428 77.3335 8.6806 77.3335 9.16683V16.5002C77.3335 16.9864 77.1403 17.4527 76.7965 17.7965C76.4527 18.1403 75.9864 18.3335 75.5002 18.3335H68.1668C67.6806 18.3335 67.2143 18.1403 66.8705 17.7965C66.5267 17.4527 66.3335 16.9864 66.3335 16.5002V9.16683Z" stroke="#28366D" stroke-width="2.75" stroke-linecap="round" stroke-linejoin="round"/>
<path d="M84.6665 9.16683C84.6665 8.6806 84.8597 8.21428 85.2035 7.87047C85.5473 7.52665 86.0136 7.3335 86.4998 7.3335H93.8332C94.3194 7.3335 94.7857 7.52665 95.1295 7.87047C95.4734 8.21428 95.6665 8.6806 95.6665 9.16683V16.5002C95.6665 16.9864 95.4734 17.4527 95.1295 17.7965C94.7857 18.1403 94.3194 18.3335 93.8332 18.3335H86.4998C86.0136 18.3335 85.5473 18.1403 85.2035 17.7965C84.8597 17.4527 84.6665 16.9864 84.6665 16.5002V9.16683Z" stroke="#28366D" stroke-width="2.75" stroke-linecap="round" stroke-linejoin="round"/>
<path d="M66.3335 27.4998C66.3335 27.0136 66.5267 26.5473 66.8705 26.2035C67.2143 25.8597 67.6806 25.6665 68.1668 25.6665H75.5002C75.9864 25.6665 76.4527 25.8597 76.7965 26.2035C77.1403 26.5473 77.3335 27.0136 77.3335 27.4998V34.8332C77.3335 35.3194 77.1403 35.7857 76.7965 36.1295C76.4527 36.4734 75.9864 36.6665 75.5002 36.6665H68.1668C67.6806 36.6665 67.2143 36.4734 66.8705 36.1295C66.5267 35.7857 66.3335 35.3194 66.3335 34.8332V27.4998Z" stroke="#28366D" stroke-width="2.75" stroke-linecap="round" stroke-linejoin="round"/>
<path d="M84.6665 27.4998C84.6665 27.0136 84.8597 26.5473 85.2035 26.2035C85.5473 25.8597 86.0136 25.6665 86.4998 25.6665H93.8332C94.3194 25.6665 94.7857 25.8597 95.1295 26.2035C95.4734 26.5473 95.6665 27.0136 95.6665 27.4998V34.8332C95.6665 35.3194 95.4734 35.7857 95.1295 36.1295C94.7857 36.4734 94.3194 36.6665 93.8332 36.6665H86.4998C86.0136 36.6665 85.5473 36.4734 85.2035 36.1295C84.8597 35.7857 84.6665 35.3194 84.6665 34.8332V27.4998Z" stroke="#28366D" stroke-width="2.75" stroke-linecap="round" stroke-linejoin="round"/>
</g>
<g clip-path="url(#clip1_475_3031)">
<path d="M125.333 9.16683C125.333 9.65306 125.527 10.1194 125.87 10.4632C126.214 10.807 126.681 11.0002 127.167 11.0002C127.653 11.0002 128.119 10.807 128.463 10.4632C128.807 10.1194 129 9.65306 129 9.16683C129 8.6806 128.807 8.21428 128.463 7.87047C128.119 7.52665 127.653 7.3335 127.167 7.3335C126.681 7.3335 126.214 7.52665 125.87 7.87047C125.527 8.21428 125.333 8.6806 125.333 9.16683Z" stroke="#28366D" stroke-width="2.75" stroke-linecap="round" stroke-linejoin="round"/>
<path d="M138.167 9.16683C138.167 9.65306 138.36 10.1194 138.703 10.4632C139.047 10.807 139.514 11.0002 140 11.0002C140.486 11.0002 140.952 10.807 141.296 10.4632C141.64 10.1194 141.833 9.65306 141.833 9.16683C141.833 8.6806 141.64 8.21428 141.296 7.87047C140.952 7.52665 140.486 7.3335 140 7.3335C139.514 7.3335 139.047 7.52665 138.703 7.87047C138.36 8.21428 138.167 8.6806 138.167 9.16683Z" stroke="#28366D" stroke-width="2.75" stroke-linecap="round" stroke-linejoin="round"/>
<path d="M151 9.16683C151 9.65306 151.193 10.1194 151.537 10.4632C151.881 10.807 152.347 11.0002 152.833 11.0002C153.32 11.0002 153.786 10.807 154.13 10.4632C154.474 10.1194 154.667 9.65306 154.667 9.16683C154.667 8.6806 154.474 8.21428 154.13 7.87047C153.786 7.52665 153.32 7.3335 152.833 7.3335C152.347 7.3335 151.881 7.52665 151.537 7.87047C151.193 8.21428 151 8.6806 151 9.16683Z" stroke="#28366D" stroke-width="2.75" stroke-linecap="round" stroke-linejoin="round"/>
<path d="M125.333 21.9998C125.333 22.4861 125.527 22.9524 125.87 23.2962C126.214 23.64 126.681 23.8332 127.167 23.8332C127.653 23.8332 128.119 23.64 128.463 23.2962C128.807 22.9524 129 22.4861 129 21.9998C129 21.5136 128.807 21.0473 128.463 20.7035C128.119 20.3597 127.653 20.1665 127.167 20.1665C126.681 20.1665 126.214 20.3597 125.87 20.7035C125.527 21.0473 125.333 21.5136 125.333 21.9998Z" stroke="#28366D" stroke-width="2.75" stroke-linecap="round" stroke-linejoin="round"/>
<path d="M138.167 21.9998C138.167 22.4861 138.36 22.9524 138.703 23.2962C139.047 23.64 139.514 23.8332 140 23.8332C140.486 23.8332 140.952 23.64 141.296 23.2962C141.64 22.9524 141.833 22.4861 141.833 21.9998C141.833 21.5136 141.64 21.0473 141.296 20.7035C140.952 20.3597 140.486 20.1665 140 20.1665C139.514 20.1665 139.047 20.3597 138.703 20.7035C138.36 21.0473 138.167 21.5136 138.167 21.9998Z" stroke="#28366D" stroke-width="2.75" stroke-linecap="round" stroke-linejoin="round"/>
<path d="M151 21.9998C151 22.4861 151.193 22.9524 151.537 23.2962C151.881 23.64 152.347 23.8332 152.833 23.8332C153.32 23.8332 153.786 23.64 154.13 23.2962C154.474 22.9524 154.667 22.4861 154.667 21.9998C154.667 21.5136 154.474 21.0473 154.13 20.7035C153.786 20.3597 153.32 20.1665 152.833 20.1665C152.347 20.1665 151.881 20.3597 151.537 20.7035C151.193 21.0473 151 21.5136 151 21.9998Z" stroke="#28366D" stroke-width="2.75" stroke-linecap="round" stroke-linejoin="round"/>
<path d="M125.333 34.8333C125.333 35.3196 125.527 35.7859 125.87 36.1297C126.214 36.4735 126.681 36.6667 127.167 36.6667C127.653 36.6667 128.119 36.4735 128.463 36.1297C128.807 35.7859 129 35.3196 129 34.8333C129 34.3471 128.807 33.8808 128.463 33.537C128.119 33.1932 127.653 33 127.167 33C126.681 33 126.214 33.1932 125.87 33.537C125.527 33.8808 125.333 34.3471 125.333 34.8333Z" stroke="#28366D" stroke-width="2.75" stroke-linecap="round" stroke-linejoin="round"/>
<path d="M138.167 34.8333C138.167 35.3196 138.36 35.7859 138.703 36.1297C139.047 36.4735 139.514 36.6667 140 36.6667C140.486 36.6667 140.952 36.4735 141.296 36.1297C141.64 35.7859 141.833 35.3196 141.833 34.8333C141.833 34.3471 141.64 33.8808 141.296 33.537C140.952 33.1932 140.486 33 140 33C139.514 33 139.047 33.1932 138.703 33.537C138.36 33.8808 138.167 34.3471 138.167 34.8333Z" stroke="#28366D" stroke-width="2.75" stroke-linecap="round" stroke-linejoin="round"/>
<path d="M151 34.8333C151 35.3196 151.193 35.7859 151.537 36.1297C151.881 36.4735 152.347 36.6667 152.833 36.6667C153.32 36.6667 153.786 36.4735 154.13 36.1297C154.474 35.7859 154.667 35.3196 154.667 34.8333C154.667 34.3471 154.474 33.8808 154.13 33.537C153.786 33.1932 153.32 33 152.833 33C152.347 33 151.881 33.1932 151.537 33.537C151.193 33.8808 151 34.3471 151 34.8333Z" stroke="#28366D" stroke-width="2.75" stroke-linecap="round" stroke-linejoin="round"/>
</g>
<g clip-path="url(#clip2_475_3031)">
<rect width="44" height="44" rx="5" fill="#1890FF"/>
<path d="M7.3335 11H17.4168" stroke="white" stroke-width="2.75" stroke-linecap="round" stroke-linejoin="round"/>
<path d="M7.3335 18.3335H17.4168" stroke="white" stroke-width="2.75" stroke-linecap="round" stroke-linejoin="round"/>
<path d="M7.3335 25.6665H17.4168" stroke="white" stroke-width="2.75" stroke-linecap="round" stroke-linejoin="round"/>
<path d="M7.3335 33H17.4168" stroke="white" stroke-width="2.75" stroke-linecap="round" stroke-linejoin="round"/>
<path d="M26.5835 11H36.6668" stroke="white" stroke-width="2.75" stroke-linecap="round" stroke-linejoin="round"/>
<path d="M26.5835 18.3335H36.6668" stroke="white" stroke-width="2.75" stroke-linecap="round" stroke-linejoin="round"/>
<path d="M26.5835 25.6665H36.6668" stroke="white" stroke-width="2.75" stroke-linecap="round" stroke-linejoin="round"/>
<path d="M26.5835 33H36.6668" stroke="white" stroke-width="2.75" stroke-linecap="round" stroke-linejoin="round"/>
</g>
<defs>
<clipPath id="clip0_475_3031">
<rect x="59" width="44" height="44" rx="5" fill="white"/>
</clipPath>
<clipPath id="clip1_475_3031">
<rect width="44" height="44" fill="white" transform="translate(118)"/>
</clipPath>
<clipPath id="clip2_475_3031">
<rect width="44" height="44" rx="5" fill="white"/>
</clipPath>
</defs>
</svg>
