<svg width="40" height="40" viewBox="0 0 40 40" fill="none" xmlns="http://www.w3.org/2000/svg">
<path d="M25.2502 23.0002H24.0652L23.6452 22.5952C24.5826 21.5062 25.2677 20.2234 25.6515 18.8386C26.0353 17.4539 26.1083 16.0014 25.8652 14.5852C25.1602 10.4152 21.6802 7.08521 17.4802 6.57521C16.0036 6.3884 14.5039 6.54186 13.0957 7.02384C11.6876 7.50582 10.4084 8.30353 9.35595 9.35595C8.30353 10.4084 7.50582 11.6876 7.02384 13.0957C6.54186 14.5039 6.3884 16.0036 6.57521 17.4802C7.08521 21.6802 10.4152 25.1602 14.5852 25.8652C16.0014 26.1083 17.4539 26.0353 18.8386 25.6515C20.2234 25.2677 21.5062 24.5826 22.5952 23.6452L23.0002 24.0652V25.2502L29.3752 31.6252C29.9902 32.2402 30.9952 32.2402 31.6102 31.6252C32.2252 31.0102 32.2252 30.0052 31.6102 29.3902L25.2502 23.0002ZM16.2502 23.0002C12.5152 23.0002 9.50021 19.9852 9.50021 16.2502C9.50021 12.5152 12.5152 9.50021 16.2502 9.50021C19.9852 9.50021 23.0002 12.5152 23.0002 16.2502C23.0002 19.9852 19.9852 23.0002 16.2502 23.0002Z" fill="white"/>
</svg>
